<svg xmlns="http://www.w3.org/2000/svg" width="1200" height="1700" viewBox="0 0 1200 1700">
  <defs>
    <filter id="grain">
      <feTurbulence type="fractalNoise" baseFrequency=".018 .09" numOctaves="5" seed="13"/>
      <feColorMatrix type="matrix" values=".18 0 0 0 0  0 .18 0 0 0  0 0 .18 0 0  0 0 0 1 0"/>
      <feBlend in="SourceGraphic" mode="screen"/>
    </filter>
    <linearGradient id="g" x1="0" x2="1" y1="0" y2="1">
      <stop stop-color="#050505"/>
      <stop offset=".48" stop-color="#303033"/>
      <stop offset="1" stop-color="#090909"/>
    </linearGradient>
  </defs>
  <rect width="1200" height="1700" fill="url(#g)"/>
  <g filter="url(#grain)" opacity=".92">
    <path d="M-40 305 C230 160 325 555 580 384 C832 216 920 450 1260 298" fill="none" stroke="#4b4b4f" stroke-width="58" opacity=".55"/>
    <path d="M-70 680 C215 520 340 900 610 706 C875 516 1030 800 1280 620" fill="none" stroke="#151515" stroke-width="72" opacity=".76"/>
    <path d="M-30 1095 C260 930 435 1275 720 1080 C962 914 1070 1148 1260 1048" fill="none" stroke="#3b3b40" stroke-width="48" opacity=".62"/>
    <path d="M85 225 L1040 1435" stroke="#39FF14" stroke-width="5" opacity=".24"/>
    <path d="M210 410 L1120 1530" stroke="#A020F0" stroke-width="4" opacity=".30"/>
    <path d="M705 0 L-40 1120" stroke="#fff" stroke-width="2" opacity=".12"/>
  </g>
  <g fill="none" stroke-linecap="round" opacity=".7">
    <path d="M178 1180 C310 1060 488 1060 640 1175 S930 1266 1040 1115" stroke="#1d1d20" stroke-width="24"/>
    <path d="M195 1190 C326 1085 482 1092 625 1202 S900 1286 1025 1138" stroke="#A020F0" stroke-width="5" opacity=".64"/>
    <path d="M210 1210 C338 1124 470 1130 604 1233 S870 1307 1005 1178" stroke="#39FF14" stroke-width="4" opacity=".55"/>
  </g>
</svg>
