<svg xmlns="http://www.w3.org/2000/svg" width="1200" height="1700" viewBox="0 0 1200 1700">
  <defs>
    <linearGradient id="sky" x1="0" x2="0" y1="0" y2="1"><stop stop-color="#111"/><stop offset="1" stop-color="#333"/></linearGradient>
    <filter id="blur"><feGaussianBlur stdDeviation="5"/></filter>
  </defs>
  <rect width="1200" height="1700" fill="#000"/>
  <g filter="url(#blur)" opacity=".72">
    <rect y="0" width="1200" height="760" fill="url(#sky)"/>
    <path d="M0 760 L1200 580 L1200 1700 L0 1700 Z" fill="#151515"/>
    <path d="M140 360 h210 v440 H140zM420 260 h180 v500H420zM720 310 h270v430H720z" fill="#27272b"/>
    <path d="M0 985 C295 845 575 850 1200 940" fill="none" stroke="#555" stroke-width="24" opacity=".55"/>
    <path d="M515 770 C570 610 645 498 720 330" fill="none" stroke="#39FF14" stroke-width="6" opacity=".42"/>
    <path d="M645 780 C705 620 785 510 880 340" fill="none" stroke="#A020F0" stroke-width="7" opacity=".5"/>
  </g>
  <text x="72" y="250" fill="#39FF14" font-family="Montserrat,Arial,sans-serif" font-size="74" font-weight="900" opacity=".78">MAR DEL PLATA</text>
  <g transform="translate(105 965) rotate(-8)">
    <ellipse cx="520" cy="445" rx="440" ry="86" fill="#000" opacity=".75"/>
    <path d="M150 320 C315 205 590 160 845 230 C980 268 1040 382 940 455 C765 578 425 575 218 470 C110 415 75 370 150 320Z" fill="#f4f4f4"/>
    <path d="M190 327 C350 242 555 208 762 250 C860 270 915 340 874 386 C718 505 408 498 235 420 C170 390 150 358 190 327Z" fill="#0b0b0c"/>
    <path d="M242 334 C398 266 574 250 732 280" fill="none" stroke="#39FF14" stroke-width="16"/>
    <path d="M300 410 C455 470 675 462 845 382" fill="none" stroke="#A020F0" stroke-width="13"/>
    <path d="M175 470 C402 596 760 592 960 454" fill="none" stroke="#fff" stroke-width="28"/>
  </g>
</svg>
